<svg xmlns="http://www.w3.org/2000/svg" version="1.1" xmlns:xlink="http://www.w3.org/1999/xlink" xmlns:svgjs="http://svgjs.com/svgjs" width="256" height="256"><svg xmlns="http://www.w3.org/2000/svg" width="256" height="256" viewBox="0 0 100 100"><rect width="100" height="100" rx="20" fill="#d84100"></rect><path fill="#fff" d="M45.25 27.57Q46.51 27.57 47.05 28.14Q47.59 28.72 47.59 30.09L47.59 30.09Q47.59 31.46 47.05 32.04Q46.51 32.61 45.25 32.61L45.25 32.61L42.95 32.61L42.95 57.03Q42.95 64.79 38.89 68.61Q34.82 72.43 27.40 72.43L27.40 72.43Q19.98 72.43 15.92 68.61Q11.85 64.79 11.85 57.03L11.85 57.03L11.85 32.61L9.55 32.61Q8.29 32.61 7.75 32.04Q7.21 31.46 7.21 30.09L7.21 30.09Q7.21 28.72 7.75 28.14Q8.29 27.57 9.55 27.57L9.55 27.57L21.57 27.57Q22.84 27.57 23.37 28.14Q23.91 28.72 23.91 30.09L23.91 30.09Q23.91 31.46 23.37 32.04Q22.84 32.61 21.57 32.61L21.57 32.61L17.42 32.61L17.42 56.29Q17.42 61.97 19.83 64.45Q22.24 66.94 27.40 66.94L27.40 66.94Q32.56 66.94 34.97 64.45Q37.38 61.97 37.38 56.29L37.38 56.29L37.38 32.61L33.23 32.61Q31.96 32.61 31.43 32.04Q30.89 31.46 30.89 30.09L30.89 30.09Q30.89 28.72 31.43 28.14Q31.96 27.57 33.23 27.57L33.23 27.57L45.25 27.57ZM90.45 27.57Q91.71 27.57 92.25 28.14Q92.79 28.72 92.79 30.09L92.79 30.09Q92.79 31.46 92.25 32.04Q91.71 32.61 90.45 32.61L90.45 32.61L87.78 32.61L87.78 66.57L90.45 66.57Q91.71 66.57 92.25 67.14Q92.79 67.72 92.79 69.09L92.79 69.09Q92.79 70.47 92.25 71.04Q91.71 71.62 90.45 71.62L90.45 71.62L78.80 71.62Q77.54 71.62 77.00 71.04Q76.46 70.47 76.46 69.09L76.46 69.09Q76.46 67.72 77.00 67.14Q77.54 66.57 78.80 66.57L78.80 66.57L82.21 66.57L82.21 51.43L63.73 51.43L63.73 66.57L67.14 66.57Q68.41 66.57 68.94 67.14Q69.48 67.72 69.48 69.09L69.48 69.09Q69.48 70.47 68.94 71.04Q68.41 71.62 67.14 71.62L67.14 71.62L55.49 71.62Q54.23 71.62 53.69 71.04Q53.15 70.47 53.15 69.09L53.15 69.09Q53.15 67.72 53.69 67.14Q54.23 66.57 55.49 66.57L55.49 66.57L58.16 66.57L58.16 32.61L55.49 32.61Q54.23 32.61 53.69 32.04Q53.15 31.46 53.15 30.09L53.15 30.09Q53.15 28.72 53.69 28.14Q54.23 27.57 55.49 27.57L55.49 27.57L67.14 27.57Q68.41 27.57 68.94 28.14Q69.48 28.72 69.48 30.09L69.48 30.09Q69.48 31.46 68.94 32.04Q68.41 32.61 67.14 32.61L67.14 32.61L63.73 32.61L63.73 46.38L82.21 46.38L82.21 32.61L78.80 32.61Q77.54 32.61 77.00 32.04Q76.46 31.46 76.46 30.09L76.46 30.09Q76.46 28.72 77.00 28.14Q77.54 27.57 78.80 27.57L78.80 27.57L90.45 27.57Z"></path></svg><style>@media (prefers-color-scheme: light) { :root { filter: none; } }
@media (prefers-color-scheme: dark) { :root { filter: none; } }
</style></svg>