<?xml version="1.0" standalone="no"?>
<!DOCTYPE svg PUBLIC "-//W3C//DTD SVG 20010904//EN"
 "http://www.w3.org/TR/2001/REC-SVG-20010904/DTD/svg10.dtd">
<svg version="1.0" xmlns="http://www.w3.org/2000/svg"
 width="512.000000pt" height="512.000000pt" viewBox="0 0 512.000000 512.000000"
 preserveAspectRatio="xMidYMid meet">
<metadata>
Created by potrace 1.14, written by Peter Selinger 2001-2017
</metadata>
<g transform="translate(0.000000,512.000000) scale(0.100000,-0.100000)"
fill="#000000" stroke="none">
<path d="M0 2560 l0 -2560 2560 0 2560 0 0 2560 0 2560 -2560 0 -2560 0 0
-2560z m1260 1064 c45 -44 45 -154 0 -198 -18 -19 -34 -21 -150 -25 l-130 -3
0 -603 c0 -376 4 -633 11 -681 21 -150 73 -244 169 -302 77 -46 139 -63 255
-69 238 -13 398 54 470 197 59 117 59 108 63 811 l3 647 -130 3 c-120 4 -131
6 -155 28 -31 29 -42 91 -26 150 19 71 27 72 416 69 l336 -3 24 -28 c20 -23
24 -39 24 -88 0 -33 -5 -69 -11 -81 -16 -30 -70 -48 -143 -48 l-65 0 -4 -672
c-3 -659 -4 -675 -25 -758 -35 -130 -85 -224 -163 -300 -143 -142 -367 -212
-630 -196 -352 21 -575 183 -660 481 -23 79 -23 86 -27 763 l-3 682 -67 1
c-37 1 -78 4 -91 8 -84 23 -90 198 -8 231 12 5 174 8 359 7 328 -2 338 -3 358
-23z m2209 2 c46 -42 49 -144 6 -194 -22 -25 -29 -27 -134 -30 l-111 -4 0
-329 0 -329 445 0 445 0 0 330 0 330 -92 1 c-114 1 -136 7 -162 43 -16 21 -21
42 -21 87 1 51 5 63 28 87 l27 27 339 0 c319 0 340 -1 360 -19 46 -42 49 -143
6 -194 -21 -24 -30 -26 -119 -30 l-96 -4 0 -818 0 -818 94 -4 c108 -4 129 -16
146 -80 14 -49 4 -103 -25 -136 l-23 -27 -341 0 -341 0 -27 27 c-23 24 -27 36
-28 87 0 45 5 66 21 87 26 36 48 42 162 43 l92 1 0 365 0 365 -445 0 -445 0 0
-365 0 -365 93 0 c117 0 156 -17 175 -75 16 -50 7 -108 -23 -143 l-23 -27
-326 -3 c-378 -3 -387 -2 -406 69 -16 58 -5 121 26 150 21 20 37 23 114 27
l90 4 0 818 0 818 -90 4 c-82 4 -93 7 -118 31 -22 23 -26 35 -27 85 0 68 17
107 54 121 15 6 160 9 352 8 306 -2 328 -3 348 -21z"/>
</g>
</svg>
