<?xml version="1.0" standalone="no"?>
<!DOCTYPE svg PUBLIC "-//W3C//DTD SVG 20010904//EN"
 "http://www.w3.org/TR/2001/REC-SVG-20010904/DTD/svg10.dtd">
<svg version="1.0" xmlns="http://www.w3.org/2000/svg"
 width="700.000000pt" height="700.000000pt" viewBox="0 0 700.000000 700.000000"
 preserveAspectRatio="xMidYMid meet">
<metadata>
Created by potrace 1.14, written by Peter Selinger 2001-2017
</metadata>
<g transform="translate(0.000000,700.000000) scale(0.100000,-0.100000)"
fill="#000000" stroke="none">
<path d="M1230 6989 c-232 -27 -499 -137 -687 -282 -86 -66 -216 -202 -282
-294 -111 -155 -189 -334 -233 -536 l-23 -102 0 -2275 0 -2275 23 -102 c62
-280 183 -507 374 -702 231 -234 530 -378 855 -411 76 -8 770 -10 2318 -8
l2210 4 97 22 c286 66 512 189 708 386 198 199 319 424 382 709 l23 102 0
2275 0 2275 -23 102 c-63 286 -189 518 -387 714 -197 195 -420 316 -703 381
l-97 22 -2240 2 c-1235 1 -2274 -2 -2315 -7z m220 -2906 c0 -461 5 -892 9
-958 20 -266 90 -404 244 -480 99 -49 210 -68 352 -61 243 11 389 101 456 279
53 142 52 113 56 1120 l4 937 295 0 295 0 -3 -997 -3 -998 -27 -100 c-90 -330
-303 -555 -632 -666 -170 -58 -269 -73 -496 -73 -212 0 -310 12 -461 60 -324
101 -543 321 -632 634 -45 154 -47 213 -47 1203 l0 937 295 0 295 0 0 -837z
m2990 287 l0 -550 553 2 552 3 3 548 2 547 295 0 295 0 0 -1400 0 -1400 -295
0 -295 0 -2 603 -3 602 -552 3 -553 2 0 -605 0 -605 -300 0 -300 0 0 1400 0
1400 300 0 300 0 0 -550z"/>
</g>
</svg>
