<svg xmlns="http://www.w3.org/2000/svg" width="256" height="256" viewBox="0 0 100 100"><rect width="100" height="100" rx="20" fill="#d84100"></rect><path fill="#fff" d="M36.68 29.74L45.13 29.74L45.13 55.61Q45.13 60.04 43.15 63.37Q41.17 66.71 37.42 68.48Q33.68 70.26 28.56 70.26L28.56 70.26Q20.85 70.26 16.59 66.31Q12.32 62.36 12.32 55.50L12.32 55.50L12.32 29.74L20.77 29.74L20.77 54.21Q20.77 58.83 22.63 60.99Q24.49 63.15 28.78 63.15L28.78 63.15Q32.94 63.15 34.81 60.98Q36.68 58.80 36.68 54.16L36.68 54.16L36.68 29.74ZM87.68 29.74L87.68 69.71L79.23 69.71L79.23 52.46L63.40 52.46L63.40 69.71L54.92 69.71L54.92 29.74L63.40 29.74L63.40 45.41L79.23 45.41L79.23 29.74L87.68 29.74Z"></path></svg>